<svg width="14" height="12" viewBox="0 0 14 12" fill="none" xmlns="http://www.w3.org/2000/svg">
<path d="M5.4 5.19999C6.03652 5.19999 6.64697 4.94714 7.09706 4.49705C7.54714 4.04696 7.8 3.43651 7.8 2.79999C7.8 2.16347 7.54714 1.55303 7.09706 1.10294C6.64697 0.65285 6.03652 0.399994 5.4 0.399994C4.76348 0.399994 4.15303 0.65285 3.70294 1.10294C3.25286 1.55303 3 2.16347 3 2.79999C3 3.43651 3.25286 4.04696 3.70294 4.49705C4.15303 4.94714 4.76348 5.19999 5.4 5.19999Z" fill="white"/>
<path d="M5.39998 6.79999C6.67301 6.79999 7.89391 7.3057 8.79409 8.20588C9.69426 9.10605 10.2 10.3269 10.2 11.6H0.599976C0.599976 10.3269 1.10569 9.10605 2.00586 8.20588C2.90604 7.3057 4.12694 6.79999 5.39998 6.79999Z" fill="white"/>
<path d="M11.8 3.59999C11.8 3.38781 11.7157 3.18433 11.5657 3.0343C11.4156 2.88427 11.2121 2.79999 11 2.79999C10.7878 2.79999 10.5843 2.88427 10.4343 3.0343C10.2843 3.18433 10.2 3.38781 10.2 3.59999V4.39999H9.39998C9.1878 4.39999 8.98432 4.48427 8.83429 4.6343C8.68426 4.78433 8.59998 4.98781 8.59998 5.19999C8.59998 5.41216 8.68426 5.61564 8.83429 5.76567C8.98432 5.9157 9.1878 5.99999 9.39998 5.99999H10.2V6.79999C10.2 7.01216 10.2843 7.21564 10.4343 7.36567C10.5843 7.5157 10.7878 7.59999 11 7.59999C11.2121 7.59999 11.4156 7.5157 11.5657 7.36567C11.7157 7.21564 11.8 7.01216 11.8 6.79999V5.99999H12.6C12.8121 5.99999 13.0156 5.9157 13.1657 5.76567C13.3157 5.61564 13.4 5.41216 13.4 5.19999C13.4 4.98781 13.3157 4.78433 13.1657 4.6343C13.0156 4.48427 12.8121 4.39999 12.6 4.39999H11.8V3.59999Z" fill="white"/>
</svg>
