<svg width="15" height="16" viewBox="0 0 15 16" fill="none" xmlns="http://www.w3.org/2000/svg">
<path d="M7.49972 0.639404C3.43588 0.639404 0.139038 3.93209 0.139038 7.9962C0.139038 12.0642 3.43588 15.3607 7.49968 15.3607C11.5657 15.3607 14.8598 12.0642 14.8598 7.9962C14.8598 3.93209 11.5657 0.639404 7.49972 0.639404ZM8.02424 12.0919C7.85328 12.244 7.65516 12.3205 7.43072 12.3205C7.19851 12.3205 6.99595 12.2454 6.82306 12.0949C6.64989 11.9447 6.56313 11.7344 6.56313 11.4642C6.56313 11.2246 6.64709 11.0228 6.81447 10.8593C6.98184 10.6958 7.18716 10.6141 7.43072 10.6141C7.6704 10.6141 7.87213 10.6958 8.03589 10.8593C8.19938 11.0228 8.2814 11.2245 8.2814 11.4642C8.28109 11.7305 8.19546 11.9398 8.02424 12.0919ZM10.1559 6.80719C10.0246 7.05075 9.86856 7.26077 9.68762 7.43786C9.50723 7.61491 9.18277 7.91251 8.71446 8.33091C8.58533 8.44896 8.48143 8.55259 8.40357 8.6418C8.32572 8.73132 8.26753 8.81303 8.22955 8.88731C8.19262 8.95838 8.16301 9.03302 8.14116 9.11007C8.12037 9.18405 8.08907 9.31457 8.04667 9.50104C7.97464 9.89674 7.74826 10.0946 7.36779 10.0946C7.16994 10.0946 7.00369 10.03 6.86819 9.90059C6.73323 9.77119 6.66591 9.57917 6.66591 9.32425C6.66591 9.00477 6.71551 8.72794 6.81443 8.49382C6.91281 8.25967 7.04443 8.05435 7.20792 7.8773C7.37168 7.70024 7.59223 7.49018 7.87016 7.24662C8.11372 7.03353 8.28968 6.87284 8.39802 6.76447C8.50572 6.65702 8.59787 6.53503 8.67178 6.40204C8.74634 6.26876 8.78291 6.12439 8.78291 5.9684C8.78291 5.66389 8.67015 5.40731 8.44349 5.1981C8.21711 4.9889 7.92504 4.88415 7.56731 4.88415C7.14864 4.88415 6.84051 4.98972 6.64266 5.20086C6.44481 5.41201 6.27774 5.7229 6.14057 6.13383C6.0109 6.5639 5.76539 6.77889 5.40433 6.77889C5.19124 6.77889 5.01142 6.7038 4.86484 6.5536C4.71853 6.40341 4.64538 6.24077 4.64538 6.06566C4.64538 5.70432 4.76148 5.338 4.99342 4.96698C5.22563 4.59596 5.56423 4.28865 6.0095 4.04536C6.45449 3.8018 6.97407 3.67987 7.56731 3.67987C8.119 3.67987 8.60586 3.78183 9.02815 3.9855C9.45043 4.18888 9.77683 4.46571 10.0071 4.81594C10.2371 5.16589 10.3523 5.54635 10.3523 5.95729C10.3529 6.28014 10.2872 6.56362 10.1559 6.80719Z" fill="white"/>
</svg>
