<svg width="19" height="20" viewBox="0 0 19 20" fill="none" xmlns="http://www.w3.org/2000/svg">
<path fill-rule="evenodd" clip-rule="evenodd" d="M15.1094 9.39282V7.14282C15.1094 4.24333 12.7589 1.89282 9.85938 1.89282C6.95988 1.89282 4.60938 4.24333 4.60938 7.14282V9.39282C4.60938 11.8678 2.35938 12.4678 2.35938 13.8928C2.35938 15.1678 5.28438 16.1428 9.85938 16.1428C14.4344 16.1428 17.3594 15.1678 17.3594 13.8928C17.3594 12.4678 15.1094 11.8678 15.1094 9.39282Z" stroke="#717171" stroke-width="2" stroke-linecap="round" stroke-linejoin="round"/>
<path d="M9.85939 17.6428C9.10114 17.6428 8.38864 17.6173 7.71814 17.5678C8.01151 18.5036 8.87864 19.1406 9.85939 19.1406C10.8401 19.1406 11.7073 18.5036 12.0006 17.5678C11.3301 17.6173 10.6176 17.6428 9.85939 17.6428Z" fill="#717171"/>
</svg>
