<svg width="12" height="7" viewBox="0 0 12 7" fill="none" xmlns="http://www.w3.org/2000/svg">
<path d="M3.93124 6.31247C3.93124 6.18618 3.98141 6.06506 4.07071 5.97576C4.16002 5.88645 4.28114 5.83628 4.40743 5.83628H7.26458C7.39088 5.83628 7.512 5.88645 7.6013 5.97576C7.69061 6.06506 7.74078 6.18618 7.74078 6.31247C7.74078 6.43877 7.69061 6.55989 7.6013 6.64919C7.512 6.7385 7.39088 6.78867 7.26458 6.78867H4.40743C4.28114 6.78867 4.16002 6.7385 4.07071 6.64919C3.98141 6.55989 3.93124 6.43877 3.93124 6.31247ZM2.02647 3.45532C2.02647 3.32903 2.07664 3.20791 2.16595 3.1186C2.25525 3.0293 2.37637 2.97913 2.50266 2.97913H9.16935C9.29565 2.97913 9.41677 3.0293 9.50607 3.1186C9.59537 3.20791 9.64554 3.32903 9.64554 3.45532C9.64554 3.58162 9.59537 3.70274 9.50607 3.79204C9.41677 3.88134 9.29565 3.93151 9.16935 3.93151H2.50266C2.37637 3.93151 2.25525 3.88134 2.16595 3.79204C2.07664 3.70274 2.02647 3.58162 2.02647 3.45532ZM0.121704 0.598171C0.121704 0.471877 0.171874 0.350756 0.261178 0.261452C0.350481 0.172149 0.471602 0.121979 0.597896 0.121979H11.0741C11.2004 0.121979 11.3215 0.172149 11.4108 0.261452C11.5001 0.350756 11.5503 0.471877 11.5503 0.598171C11.5503 0.724465 11.5001 0.845586 11.4108 0.934889C11.3215 1.02419 11.2004 1.07436 11.0741 1.07436H0.597896C0.471602 1.07436 0.350481 1.02419 0.261178 0.934889C0.171874 0.845586 0.121704 0.724465 0.121704 0.598171Z" fill="#8F95B2"/>
</svg>
