<svg width="79" height="89" viewBox="0 0 79 89" fill="none" xmlns="http://www.w3.org/2000/svg">
<path d="M65.1852 15.6101H59.9842C58.5469 15.6101 57.3836 16.7732 57.3836 18.2107C57.3836 19.648 58.5467 20.8113 59.9842 20.8113H65.1852C66.6226 20.8113 67.7858 19.6482 67.7858 18.2107C67.7857 16.7732 66.6226 15.6101 65.1852 15.6101ZM38.9058 6.64535L36.3054 1.44431C35.6579 0.159237 34.101 -0.356212 32.8159 0.281222C31.5308 0.923674 31.0102 2.48559 31.6528 3.77067L34.2534 8.97171C34.895 10.2516 36.4491 10.7774 37.7429 10.1348C39.0276 9.49235 39.5482 7.93043 38.9058 6.64535ZM55.9463 0.281222C54.6662 -0.356212 53.0994 0.15941 52.4568 1.44431L49.8562 6.64535C49.2137 7.93043 49.7344 9.49218 51.0193 10.1348C51.6363 10.4428 52.3504 10.4933 53.0047 10.2752C53.6589 10.0572 54.1999 9.58833 54.5087 8.97171L57.1093 3.77067C57.7518 2.48559 57.2312 0.923674 55.9463 0.281222ZM28.7778 15.6101H23.5768C22.1394 15.6101 20.9761 16.7732 20.9761 18.2107C20.9761 19.648 22.1392 20.8113 23.5768 20.8113H28.7778C30.2151 20.8113 31.3784 19.6482 31.3784 18.2107C31.3784 16.7732 30.2151 15.6101 28.7778 15.6101ZM13.1747 41.7888H2.77242C1.33629 41.7888 0.171814 42.9531 0.171814 44.3894V85.9977C0.171814 87.4339 1.33612 88.5984 2.77242 88.5984H13.1745C14.6106 88.5984 15.7751 87.4341 15.7751 85.9977V44.3893C15.7751 42.9531 14.611 41.7888 13.1747 41.7888ZM78.1362 48.6823C77.6775 44.6481 73.9091 41.7888 69.849 41.7888H49.5745C51.2975 38.7036 52.2224 29.9773 52.1813 26.4126C52.1133 20.512 47.2269 15.7835 41.3261 15.7835H39.1802C37.7429 15.7835 36.5796 16.9466 36.5796 18.3841C36.5796 24.3976 34.238 35.252 29.8218 39.6684C26.8494 42.6408 24.3083 43.7179 20.9763 45.3831V84.404C26.0777 86.1043 32.5548 88.5985 42.4273 88.5985H59.4386C65.0439 88.5985 69.4094 83.4072 67.2374 77.9222C70.5465 77.0207 72.9869 73.9858 72.9869 70.3948C72.9869 69.3814 72.7914 68.4114 72.4384 67.52C78.0149 66.0006 80.0675 59.115 76.1971 54.7915C77.619 53.2029 78.4032 51.0301 78.1362 48.6823Z" fill="#E14E10"/>
</svg>
