<svg width="13" height="13" viewBox="0 0 13 13" fill="none" xmlns="http://www.w3.org/2000/svg">
<path d="M1.55664 3.42051C1.55664 2.9036 1.76198 2.40786 2.12749 2.04235C2.493 1.67684 2.98874 1.4715 3.50565 1.4715H9.35267C9.86958 1.4715 10.3653 1.67684 10.7308 2.04235C11.0963 2.40786 11.3017 2.9036 11.3017 3.42051V9.26753C11.3017 9.78444 11.0963 10.2802 10.7308 10.6457C10.3653 11.0112 9.86958 11.2165 9.35267 11.2165H3.50565C2.98874 11.2165 2.493 11.0112 2.12749 10.6457C1.76198 10.2802 1.55664 9.78444 1.55664 9.26753V3.42051Z" stroke="#E14E10" stroke-width="1.09632" stroke-linecap="round" stroke-linejoin="round"/>
<path d="M4.72399 5.85685C5.39674 5.85685 5.94212 5.31148 5.94212 4.63872C5.94212 3.96597 5.39674 3.42059 4.72399 3.42059C4.05123 3.42059 3.50586 3.96597 3.50586 4.63872C3.50586 5.31148 4.05123 5.85685 4.72399 5.85685Z" stroke="#E14E10" stroke-width="1.09632" stroke-linecap="round" stroke-linejoin="round"/>
<path d="M7.66017 6.64657L3.50586 11.2165H9.41769C9.91741 11.2165 10.3967 11.018 10.75 10.6646C11.1034 10.3113 11.3019 9.83203 11.3019 9.33231V9.2675C11.3019 9.04044 11.2166 8.95323 11.0631 8.78512L9.09951 6.64365C9.008 6.54382 8.89668 6.46416 8.77265 6.40976C8.64863 6.35535 8.51463 6.32739 8.3792 6.32767C8.24377 6.32794 8.10988 6.35645 7.98608 6.41135C7.86228 6.46626 7.75128 6.54637 7.66017 6.64657V6.64657Z" stroke="#E14E10" stroke-width="1.09632" stroke-linecap="round" stroke-linejoin="round"/>
</svg>
