<svg width="14" height="14" viewBox="0 0 14 14" fill="none" xmlns="http://www.w3.org/2000/svg">
<g opacity="0.4">
<path fill-rule="evenodd" clip-rule="evenodd" d="M5.45876 6.67266C5.18778 6.67266 4.97351 6.88326 4.97351 7.1496C4.97351 7.40975 5.18778 7.62654 5.45876 7.62654H9.24001V10.5873C9.24001 12.1048 7.98589 13.3436 6.43559 13.3436H3.36648C1.82247 13.3436 0.568359 12.111 0.568359 10.5935V3.71191C0.568359 2.18818 1.82877 0.955566 3.37278 0.955566H6.44819C7.98589 0.955566 9.24001 2.18818 9.24001 3.70572V6.67266H5.45876ZM11.4886 5.00651L13.2973 6.80898C13.3902 6.90189 13.4397 7.01957 13.4397 7.14965C13.4397 7.27353 13.3902 7.39741 13.2973 7.48413L11.4886 9.28659C11.3957 9.3795 11.2718 9.42905 11.1541 9.42905C11.0302 9.42905 10.9064 9.3795 10.8134 9.28659C10.6276 9.10077 10.6276 8.79726 10.8134 8.61144L11.8045 7.62659H9.24016V6.67271H11.8045L10.8134 5.68786C10.6276 5.50204 10.6276 5.19853 10.8134 5.01271C10.9993 4.82069 11.3028 4.82069 11.4886 5.00651Z" fill="#030229"/>
</g>
</svg>
