<svg width="14" height="13" viewBox="0 0 14 13" fill="none" xmlns="http://www.w3.org/2000/svg">
<path fill-rule="evenodd" clip-rule="evenodd" d="M5.4587 6.20464C5.18771 6.20464 4.97344 6.41524 4.97344 6.68158C4.97344 6.94173 5.18771 7.15852 5.4587 7.15852H9.23994V10.1193C9.23994 11.6368 7.98583 12.8756 6.43552 12.8756H3.36642C1.82241 12.8756 0.568298 11.643 0.568298 10.1255V3.24389C0.568298 1.72016 1.82871 0.487549 3.37272 0.487549H6.44813C7.98583 0.487549 9.23994 1.72016 9.23994 3.2377V6.20464H5.4587ZM11.4885 4.5385L13.2972 6.34096C13.3901 6.43387 13.4397 6.55156 13.4397 6.68163C13.4397 6.80551 13.3901 6.92939 13.2972 7.01611L11.4885 8.81857C11.3956 8.91148 11.2717 8.96103 11.1541 8.96103C11.0302 8.96103 10.9063 8.91148 10.8134 8.81857C10.6276 8.63275 10.6276 8.32924 10.8134 8.14342L11.8044 7.15857H9.2401V6.20469H11.8044L10.8134 5.21984C10.6276 5.03402 10.6276 4.73051 10.8134 4.54469C10.9992 4.35267 11.3027 4.35267 11.4885 4.5385Z" fill="white"/>
</svg>
