<svg width="12" height="12" viewBox="0 0 12 12" fill="none" xmlns="http://www.w3.org/2000/svg">
<path fill-rule="evenodd" clip-rule="evenodd" d="M5.77336 0.166672C2.67685 0.166672 0.166626 2.62145 0.166626 5.64957C0.166626 8.6777 2.67685 11.1325 5.77336 11.1325C7.09773 11.1325 8.31485 10.6834 9.2742 9.93255L11.0966 11.71L11.1451 11.7509C11.3143 11.8733 11.5541 11.8594 11.7072 11.7093C11.8756 11.5442 11.8753 11.2768 11.7064 11.1121L9.90548 9.35552C10.8212 8.37964 11.3801 7.07844 11.3801 5.64957C11.3801 2.62145 8.86987 0.166672 5.77336 0.166672ZM5.77336 1.01119C8.39293 1.01119 10.5165 3.08786 10.5165 5.64957C10.5165 8.21128 8.39293 10.288 5.77336 10.288C3.15379 10.288 1.03021 8.21128 1.03021 5.64957C1.03021 3.08786 3.15379 1.01119 5.77336 1.01119Z" fill="#E14E10"/>
</svg>
