<svg width="20" height="16" viewBox="0 0 20 16" fill="none" xmlns="http://www.w3.org/2000/svg">
<path fill-rule="evenodd" clip-rule="evenodd" d="M10.1636 10.0357L10.2619 10.0357L10.4818 10.0365C12.1624 10.0482 16.0029 10.2274 16.0029 12.9751C16.0029 15.7048 12.2962 15.8828 10.508 15.8944L9.84545 15.8944C8.16478 15.8827 4.32347 15.7038 4.32347 12.9595C4.32347 10.2263 8.16478 10.0481 9.84545 10.0365L10.0653 10.0357C10.0994 10.0357 10.1322 10.0357 10.1636 10.0357ZM10.1636 11.414C8.09533 11.414 5.62922 11.6823 5.62922 12.9595C5.62922 14.2078 7.94814 14.4996 9.97459 14.5162L10.1636 14.5169C12.2319 14.5169 14.6972 14.2495 14.6972 12.9751C14.6972 11.685 12.2319 11.414 10.1636 11.414ZM17.0872 9.66279C19.1964 9.99634 19.6395 11.042 19.6395 11.8607C19.6395 12.3606 19.4532 13.273 18.2084 13.7738C18.1318 13.8041 18.0535 13.8188 17.976 13.8188C17.7131 13.8188 17.465 13.6497 17.3658 13.375C17.2369 13.0194 17.4067 12.6206 17.7436 12.4855C18.3338 12.2485 18.3338 11.9866 18.3338 11.8607C18.3338 11.4582 17.8489 11.1771 16.8931 11.0264C16.5371 10.9694 16.2907 10.6193 16.3438 10.2417C16.3969 9.86494 16.7277 9.61409 17.0872 9.66279ZM3.98259 10.2417C4.03569 10.6193 3.78934 10.9694 3.4333 11.0264C2.4775 11.1771 1.99263 11.4582 1.99263 11.8607C1.99263 11.9866 1.99263 12.2475 2.5837 12.4855C2.92058 12.6206 3.09033 13.0194 2.9615 13.375C2.86226 13.6497 2.61417 13.8188 2.35128 13.8188C2.2738 13.8188 2.19546 13.8041 2.11886 13.7738C0.873176 13.2721 0.68689 12.3596 0.68689 11.8607C0.68689 11.0429 1.12997 9.99634 3.24005 9.66279C3.59957 9.61501 3.92862 9.86494 3.98259 10.2417ZM10.1636 0.46669C12.3573 0.46669 14.1409 2.35035 14.1409 4.66495C14.1409 6.97955 12.3573 8.8632 10.1636 8.8632H10.1401C9.07812 8.85953 8.08315 8.42032 7.338 7.62642C6.59112 6.83345 6.18285 5.78044 6.18717 4.66219C6.18717 2.35035 7.97085 0.46669 10.1636 0.46669ZM10.1636 1.84498C8.69075 1.84498 7.49293 3.11024 7.49293 4.66495C7.49034 5.41841 7.76367 6.12317 8.26421 6.65519C8.76474 7.18721 9.43154 7.48216 10.1419 7.48492L10.1636 8.17406V7.48492C11.6365 7.48492 12.8352 6.22057 12.8352 4.66495C12.8352 3.11024 11.6365 1.84498 10.1636 1.84498ZM15.5511 1.36671C17.0815 1.63226 18.1931 3.01422 18.1931 4.65254C18.1896 6.30189 17.0223 7.71693 15.4771 7.94573C15.4467 7.95032 15.4162 7.95216 15.3866 7.95216C15.0663 7.95216 14.7868 7.70315 14.7407 7.35858C14.6911 6.98093 14.9392 6.63268 15.2969 6.5803C16.2023 6.44615 16.8856 5.61734 16.8873 4.65071C16.8873 3.69234 16.2362 2.88191 15.3387 2.72662C14.9836 2.66506 14.7424 2.31038 14.8008 1.93456C14.86 1.55875 15.1934 1.30698 15.5511 1.36671ZM5.5265 1.93456C5.58482 2.31038 5.3437 2.66506 4.98853 2.72662C4.09105 2.88191 3.43992 3.69234 3.43992 4.65254C3.44166 5.61734 4.125 6.44707 5.02945 6.5803C5.38722 6.63268 5.63531 6.98093 5.58569 7.35858C5.53956 7.70315 5.26013 7.95216 4.93979 7.95216C4.91019 7.95216 4.87972 7.95032 4.84925 7.94573C3.30412 7.71693 2.13766 6.30189 2.13418 4.65438C2.13418 3.01422 3.2458 1.63226 4.77613 1.36671C5.14261 1.30607 5.46731 1.56059 5.5265 1.93456Z" fill="#8F95B2"/>
</svg>
