<svg width="13" height="13" viewBox="0 0 13 13" fill="none" xmlns="http://www.w3.org/2000/svg">
<path d="M6.54509 0.110443C3.09818 0.110443 0.308594 2.89972 0.308594 6.34694C0.308594 9.7938 3.09787 12.5834 6.54509 12.5834C9.992 12.5834 12.7816 9.79416 12.7816 6.34694C12.7816 2.90003 9.99231 0.110443 6.54509 0.110443ZM6.36055 9.26589C6.00756 9.26589 5.73666 8.97036 5.73666 8.63376C5.73666 8.28897 6.01577 8.00168 6.36055 8.00168C6.70536 8.00168 6.99263 8.289 6.99263 8.63378C6.99263 8.97034 6.71352 9.26589 6.36055 9.26589ZM7.29637 6.07253C6.84488 6.42553 6.83665 6.6718 6.83665 7.09866C6.83665 7.25467 6.75455 7.43526 6.35232 7.43526C6.01572 7.43526 5.90083 7.31211 5.90083 6.88525C5.90083 6.17926 6.21278 5.84268 6.45084 5.63746C6.72173 5.40759 7.18146 5.15314 7.18146 4.70986C7.18146 4.33221 6.85309 4.15162 6.44263 4.15162C5.6053 4.15162 5.78592 4.78375 5.34259 4.78375C5.12095 4.78375 4.85005 4.63595 4.85005 4.31581C4.85005 3.87254 5.35901 3.21578 6.46726 3.21578C7.51801 3.21578 8.21579 3.79865 8.21579 4.57029C8.21579 5.34194 7.51801 5.90015 7.29637 6.07253Z" fill="#E14E10"/>
</svg>
