<svg width="19" height="19" viewBox="0 0 19 19" fill="none" xmlns="http://www.w3.org/2000/svg">
<path d="M18.3435 7.97155L17.5709 8.58798C17.0417 9.01025 17.0427 9.79507 17.571 10.2165L18.3435 10.8329C18.6094 11.044 18.7891 11.3399 18.8504 11.6677C18.9116 11.9955 18.8505 12.3337 18.6779 12.6217L17.1524 15.1827C16.9813 15.4717 16.7097 15.6921 16.3862 15.8045C16.0626 15.917 15.7084 15.9142 15.3869 15.7965L14.4498 15.4562C13.8079 15.2232 13.1071 15.6162 12.9947 16.2705L12.8302 17.2272C12.7746 17.5559 12.6 17.8547 12.3378 18.0701C12.0755 18.2854 11.7428 18.4031 11.3991 18.4022H8.34807C8.00438 18.4031 7.67159 18.2854 7.40934 18.0701C7.14709 17.8547 6.97253 17.5559 6.91693 17.2272L6.75241 16.2705C6.63971 15.6151 5.93799 15.2236 5.29733 15.4562L4.36024 15.7965C4.03871 15.9142 3.68446 15.917 3.36096 15.8045C3.03745 15.6921 2.76583 15.4717 2.59475 15.1827L1.06927 12.6218C0.896629 12.3337 0.835462 11.9955 0.89673 11.6677C0.957998 11.3399 1.1377 11.044 1.40362 10.833L2.17618 10.2165C2.70545 9.79423 2.7044 9.00947 2.17618 8.58802L1.40359 7.97159C1.13767 7.76054 0.957972 7.46461 0.896705 7.13683C0.835437 6.80904 0.8966 6.47082 1.06923 6.18277L2.59475 3.62177C2.95087 3.02401 3.69328 2.76593 4.36024 3.00801L5.29729 3.34829C5.93926 3.58141 6.63989 3.18812 6.75237 2.53404L6.9169 1.57736C6.97248 1.24862 7.14704 0.949797 7.40929 0.734461C7.67154 0.519123 8.00433 0.401346 8.34804 0.402231H11.399C11.7427 0.401337 12.0755 0.519104 12.3378 0.734428C12.6 0.949753 12.7746 1.24856 12.8301 1.57729L12.9946 2.53397C13.1073 3.18921 13.809 3.58096 14.4497 3.34822L15.3869 3.00798C15.7084 2.89029 16.0627 2.88742 16.3862 2.99989C16.7097 3.11235 16.9813 3.3328 17.1524 3.62174L18.6779 6.18277C18.8505 6.47082 18.9117 6.80904 18.8504 7.13681C18.7891 7.46459 18.6094 7.76051 18.3435 7.97155ZM15.8959 4.32486L14.9588 4.66514C13.4608 5.20904 11.826 4.29143 11.5636 2.76519L11.3991 1.80848H8.34807L8.18354 2.76519C7.92061 4.29438 6.28341 5.20799 4.78832 4.66514L3.85124 4.32486L2.32576 6.88586L3.09831 7.50229C4.33333 8.48772 4.33076 10.3188 3.09831 11.3022L2.32576 11.9186L3.85128 14.4796L4.78832 14.1393C6.28635 13.5955 7.92112 14.513 8.18354 16.0393L8.34804 16.996H11.399L11.5635 16.0393C11.8265 14.5099 13.4638 13.5966 14.9587 14.1393L15.8958 14.4796L17.4217 11.919L17.4213 11.9187L16.6488 11.3022C15.4138 10.3169 15.4162 8.48575 16.6487 7.50232L17.4213 6.88589L15.8959 4.32486ZM9.87356 12.871C7.90019 12.871 6.29473 11.3149 6.29473 9.40224C6.29473 7.48956 7.90019 5.93347 9.87356 5.93347C11.8469 5.93347 13.4524 7.48956 13.4524 9.40224C13.4524 11.3149 11.8469 12.871 9.87356 12.871ZM9.87356 7.33972C8.7002 7.33972 7.7456 8.26497 7.7456 9.40224C7.7456 10.5395 8.7002 11.4648 9.87356 11.4648C11.0469 11.4648 12.0015 10.5395 12.0015 9.40224C12.0015 8.26497 11.0469 7.33972 9.87356 7.33972Z" fill="#8F95B2"/>
</svg>
