<svg width="86" height="84" viewBox="0 0 86 84" fill="none" xmlns="http://www.w3.org/2000/svg">
<path d="M29.3347 28.4661C29.6012 28.6477 29.9164 28.7444 30.2389 28.7436H30.2428C30.4929 28.7434 30.7395 28.6851 30.9631 28.5732C31.1868 28.4612 31.3813 28.2988 31.5313 28.0987C31.6813 27.8986 31.7827 27.6664 31.8275 27.4203C31.8722 27.1743 31.8591 26.9212 31.7892 26.6811C30.8619 22.6204 31.3013 19.3499 33.0948 16.9604C35.2085 14.1444 36.1445 10.5311 35.5991 7.29515C35.1174 4.42754 33.5757 2.04392 31.142 0.403394C30.6033 0.0389772 29.8628 0.0418302 29.3257 0.411434C29.0583 0.594677 28.8527 0.854611 28.736 1.157C28.6193 1.45938 28.5969 1.79003 28.6718 2.10539C29.673 6.37775 28.7626 9.08429 26.4793 13.1917C25.0574 15.7491 24.4767 18.6222 24.844 21.2812C25.26 24.2884 26.8152 26.7745 29.3347 28.4661ZM42.5445 27.7767C42.7952 27.949 43.0923 28.041 43.3965 28.0407H43.3986C43.8004 28.0402 44.1856 27.8803 44.4696 27.5961C44.7537 27.312 44.9135 26.9267 44.9139 26.5249C44.914 26.3833 44.8941 26.2424 44.8547 26.1063C44.1516 23.0159 44.4805 20.5355 45.832 18.7342C47.5244 16.4805 48.2738 13.5849 47.8365 10.9891C47.4482 8.67915 46.2061 6.75851 44.245 5.43572C43.7402 5.0949 43.0568 5.08971 42.5334 5.44609C42.0237 5.79961 41.7791 6.44208 41.9228 7.03707C42.6859 10.2917 41.9869 12.363 40.2356 15.5123C39.0977 17.559 38.6337 19.8596 38.9286 21.9898C39.2632 24.4129 40.5168 26.4163 42.5445 27.7767ZM84.0598 37.5376C83.056 36.3559 81.6209 35.7051 80.0185 35.7051H72.587C72.6643 34.4311 72.4298 32.8419 71.5215 31.7725C70.85 30.982 69.8932 30.5641 68.7542 30.5641H4.34431C2.6584 30.5641 1.68705 31.2901 1.16935 31.8991C0.108777 33.1462 -0.0372488 35.0136 0.179326 36.3455C1.95343 47.2451 5.78616 57.1463 10.972 64.2251C14.8099 69.4641 19.3064 73.1975 24.4119 75.4066H6.4709C4.24212 75.4066 2.42911 77.2198 2.42911 79.4483C2.42911 81.6769 4.24238 83.4901 6.4709 83.4901H66.2251C68.4539 83.4901 70.2672 81.6769 70.2672 79.4483C70.2672 77.2198 68.4539 75.4066 66.2251 75.4066H48.3788C52.5832 73.5964 56.3617 70.7605 59.6884 66.9124C65.3941 66.4238 71.1244 63.6991 76.006 59.1149C80.9976 54.4278 84.4 48.4447 85.3416 42.7004C85.4596 41.9817 85.7151 39.486 84.0598 37.5376ZM66.2928 56.7264C68.4619 52.2782 69.9811 47.6896 71.0427 43.4863H77.1737C75.6175 48.4773 71.4297 53.7312 66.2928 56.7264Z" fill="#E14E10"/>
</svg>
