<svg width="11" height="13" viewBox="0 0 11 13" fill="none" xmlns="http://www.w3.org/2000/svg">
<path d="M2.94594 10.0829C2.94594 10.1264 2.95883 10.1689 2.98298 10.205C3.00713 10.2412 3.04145 10.2693 3.0816 10.286C3.12176 10.3026 3.16595 10.3069 3.20858 10.2985C3.25121 10.29 3.29037 10.2691 3.3211 10.2383C3.35184 10.2076 3.37277 10.1684 3.38125 10.1258C3.38972 10.0832 3.38537 10.039 3.36874 9.99882C3.35211 9.95867 3.32394 9.92435 3.2878 9.9002C3.25166 9.87605 3.20917 9.86316 3.1657 9.86316C3.10742 9.86316 3.05152 9.88631 3.01031 9.92753C2.96909 9.96874 2.94594 10.0246 2.94594 10.0829ZM8.0005 9.86316C8.04396 9.86316 8.08645 9.87605 8.12259 9.9002C8.15873 9.92435 8.1869 9.95867 8.20353 9.99882C8.22017 10.039 8.22452 10.0832 8.21604 10.1258C8.20756 10.1684 8.18663 10.2076 8.15589 10.2383C8.12516 10.2691 8.086 10.29 8.04337 10.2985C8.00074 10.3069 7.95656 10.3026 7.9164 10.286C7.87624 10.2693 7.84192 10.2412 7.81777 10.205C7.79362 10.1689 7.78074 10.1264 7.78074 10.0829C7.78074 10.0246 7.80389 9.96874 7.8451 9.92753C7.88632 9.88631 7.94221 9.86316 8.0005 9.86316ZM2.94594 5.02837C2.94594 5.54995 3.10061 6.05982 3.39038 6.49349C3.68016 6.92717 4.09203 7.26518 4.5739 7.46479C5.05578 7.66439 5.58603 7.71661 6.09759 7.61485C6.60914 7.5131 7.07904 7.26193 7.44786 6.89312C7.81667 6.52431 8.06783 6.05441 8.16959 5.54285C8.27134 5.03129 8.21912 4.50105 8.01952 4.01917C7.81992 3.53729 7.48191 3.12542 7.04823 2.83565C6.61455 2.54587 6.10468 2.39121 5.5831 2.39121C4.88368 2.39121 4.21291 2.66905 3.71835 3.16361C3.22378 3.65818 2.94594 4.32895 2.94594 5.02837ZM4.39198 5.02837C4.39198 4.79279 4.46184 4.5625 4.59272 4.36662C4.72361 4.17074 4.90963 4.01807 5.12728 3.92792C5.34493 3.83776 5.58442 3.81418 5.81548 3.86014C6.04653 3.9061 6.25877 4.01954 6.42535 4.18612C6.59193 4.3527 6.70537 4.56494 6.75133 4.79599C6.79729 5.02705 6.7737 5.26654 6.68355 5.48419C6.5934 5.70184 6.44073 5.88786 6.24485 6.01874C6.04897 6.14963 5.81868 6.21948 5.5831 6.21948C5.2672 6.21948 4.96423 6.09399 4.74085 5.87061C4.51748 5.64724 4.39198 5.34427 4.39198 5.02837ZM0.308781 1.51215V11.1817C0.308781 11.5315 0.447702 11.8668 0.694983 12.1141C0.942266 12.3614 1.27765 12.5003 1.62736 12.5003H9.53884C9.88855 12.5003 10.2239 12.3614 10.4712 12.1141C10.7185 11.8668 10.8574 11.5315 10.8574 11.1817V1.51215C10.8574 1.16244 10.7185 0.827058 10.4712 0.579776C10.2239 0.332494 9.88855 0.193573 9.53884 0.193573H1.62736C1.27765 0.193573 0.942266 0.332494 0.694983 0.579776C0.447702 0.827058 0.308781 1.16244 0.308781 1.51215ZM6.90168 10.0829C6.90168 9.8656 6.96613 9.65315 7.08687 9.47245C7.2076 9.29175 7.37922 9.15092 7.58 9.06775C7.78078 8.98458 8.00172 8.96282 8.21487 9.00522C8.42802 9.04762 8.62381 9.15227 8.77748 9.30594C8.93115 9.45962 9.0358 9.65541 9.0782 9.86856C9.1206 10.0817 9.09884 10.3026 9.01567 10.5034C8.93251 10.7042 8.79167 10.8758 8.61097 10.9966C8.43027 11.1173 8.21782 11.1817 8.0005 11.1817C7.70907 11.1817 7.42959 11.066 7.22352 10.8599C7.01745 10.6538 6.90168 10.3743 6.90168 10.0829ZM2.06689 10.0829C2.06689 9.8656 2.13133 9.65315 2.25207 9.47245C2.37281 9.29175 2.54442 9.15092 2.7452 9.06775C2.94599 8.98458 3.16692 8.96282 3.38007 9.00522C3.59322 9.04762 3.78901 9.15227 3.94269 9.30594C4.09636 9.45962 4.20101 9.65541 4.24341 9.86856C4.28581 10.0817 4.26405 10.3026 4.18088 10.5034C4.09771 10.7042 3.95687 10.8758 3.77617 10.9966C3.59547 11.1173 3.38303 11.1817 3.1657 11.1817C3.02141 11.1817 2.87852 11.1533 2.7452 11.0981C2.61189 11.0429 2.49076 10.9619 2.38872 10.8599C2.28669 10.7579 2.20575 10.6367 2.15053 10.5034C2.09531 10.3701 2.06689 10.2272 2.06689 10.0829ZM2.06689 5.02837C2.06689 4.33293 2.27311 3.6531 2.65948 3.07486C3.04584 2.49662 3.595 2.04594 4.2375 1.77981C4.88001 1.51368 5.587 1.44404 6.26908 1.57972C6.95116 1.71539 7.57769 2.05028 8.06944 2.54203C8.56119 3.03378 8.89608 3.66031 9.03175 4.34239C9.16743 5.02447 9.09779 5.73146 8.83166 6.37396C8.56553 7.01647 8.11484 7.56562 7.53661 7.95199C6.95837 8.33836 6.27854 8.54458 5.5831 8.54458C4.65054 8.54458 3.75618 8.17412 3.09676 7.51471C2.43734 6.85529 2.06689 5.96092 2.06689 5.02837ZM5.5831 4.7163C5.64482 4.7163 5.70516 4.7346 5.75647 4.7689C5.80779 4.80318 5.84779 4.85192 5.87141 4.90895C5.89503 4.96597 5.90121 5.02871 5.88917 5.08925C5.87713 5.14978 5.84741 5.20539 5.80376 5.24903C5.76012 5.29267 5.70452 5.32239 5.64398 5.33443C5.58345 5.34648 5.5207 5.3403 5.46368 5.31668C5.40666 5.29306 5.35792 5.25306 5.32363 5.20174C5.28934 5.15042 5.27104 5.09009 5.27104 5.02837C5.27104 4.98739 5.27911 4.94681 5.29479 4.90895C5.31047 4.87108 5.33346 4.83668 5.36244 4.8077C5.39142 4.77873 5.42582 4.75574 5.46368 4.74006C5.50154 4.72437 5.54212 4.7163 5.5831 4.7163Z" fill="#E14E10"/>
</svg>
