<svg width="17" height="11" viewBox="0 0 17 11" fill="none" xmlns="http://www.w3.org/2000/svg">
<path d="M9.66387 0.99585H2.50369C1.5593 0.99585 0.786621 1.76853 0.786621 2.71292V8.49945C0.786621 9.44383 1.5593 10.2165 2.50369 10.2165H9.66387C10.6083 10.2165 11.3809 9.44383 11.3809 8.49945V2.71292C11.3809 1.75136 10.6083 0.99585 9.66387 0.99585ZM15.21 1.94024C15.107 1.95741 15.004 2.00892 14.9181 2.06043L12.2395 3.6058V7.5894L14.9353 9.13476C15.4332 9.42666 16.0514 9.25496 16.3433 8.75701C16.4291 8.60247 16.4806 8.43076 16.4806 8.24188V2.93614C16.4806 2.30082 15.8797 1.7857 15.21 1.94024Z" fill="#E14E10"/>
</svg>
